<svg id="Layer_1" xmlns="http://www.w3.org/2000/svg" viewBox="0 0 72 72"><style>.st0{fill:#568491}</style><path class="st0" d="M37.7 6l.4 2.4L36 7.3l-2.1 1.1.4-2.4-1.7-1.6 2.3-.4L36 1.9 37 4l2.3.4zM37.7 66.3l.4 2.4-2.1-1.1-2.1 1.1.4-2.4-1.7-1.6 2.3-.4 1.1-2.1 1 2.1 2.3.4zM52.8 10l.4 2.3-2.1-1.1-2 1.1.4-2.3-1.7-1.7 2.3-.3 1-2.1L52.2 8l2.3.3zM22.5 10l.4 2.3-2.1-1.1-2.1 1.1.4-2.3-1.7-1.7 2.4-.3 1-2.1L21.9 8l2.3.3zM52.8 62.4l.4 2.3-2.1-1.1-2 1.1.4-2.3-1.7-1.7 2.3-.3 1-2.1 1.1 2.1 2.3.3zM22.5 62.4l.4 2.3-2.1-1.1-2.1 1.1.4-2.3-1.7-1.7 2.4-.3 1-2.1 1.1 2.1 2.3.3zM63.8 21.1l.4 2.3-2.1-1.1-2.1 1.1.4-2.3-1.7-1.7 2.3-.3 1.1-2.2 1 2.2 2.4.3zM11.5 21.1l.4 2.3-2.1-1.1-2.1 1.1.4-2.3-1.7-1.7 2.3-.3 1.1-2.2 1 2.2 2.3.3zM63.8 51.2l.4 2.4-2.1-1.1-2.1 1.1.4-2.4-1.7-1.6 2.3-.4 1.1-2.1 1 2.1 2.4.4zM11.5 51.2l.4 2.4-2.1-1.1-2.1 1.1.4-2.4-1.7-1.6 2.3-.4 1.1-2.1 1 2.1 2.3.4zM7.5 36.3l.4 2.3-2.1-1.1-2.1 1.1.4-2.3-1.7-1.7 2.4-.3 1-2.1 1.1 2.1 2.3.3zM67.9 36.3l.4 2.3-2.1-1.1-2.1 1.1.4-2.3-1.6-1.7 2.3-.3 1-2.1 1.1 2.1 2.3.3z"/><g><path class="st0" d="M47.1 49.5c-2.8 4.3-6.7 7.3-11.5 9.1l-.2.1h-.2c-4.9-1.8-8.8-4.9-11.6-9.2h23.5zM52.2 20.3l-.1-.5-16.7-3.7h-.1l-16.2 3.7-.5.1-.1.5c-.1.8-1.1 8 .3 16.1.7 4.2 2.1 7.8 3.8 11h25.5c1.5-3.3 3-6.8 3.7-11 1.5-8.4.4-15.9.4-16.2zm-8.1 20.1v.2l-19.7.1V26.8h1.8v-2h6.1v2h11.9v3.4h3.6l-3.7 10.2z"/></g><path d="M24.4 40.6l3.2-11.2 20.2.1" fill="none" stroke="#568491" stroke-width="1.5" stroke-miterlimit="10"/><path fill="#568491" stroke="#568491" stroke-miterlimit="10" d="M23.1 33.4h2.6l-1.5 7z"/></svg>